<svg xmlns="http://www.w3.org/2000/svg" viewBox="0 0 512 512" role="img" aria-labelledby="title desc">
  <title id="title">Money Buddy app icon</title>
  <desc id="desc">A simple charcoal wallet with ivory cash and an emerald growth arrow.</desc>
  <defs>
    <linearGradient id="tile" x1="76" y1="58" x2="440" y2="456" gradientUnits="userSpaceOnUse">
      <stop stop-color="#303030"/>
      <stop offset="1" stop-color="#161616"/>
    </linearGradient>
    <linearGradient id="wallet" x1="108" y1="206" x2="404" y2="406" gradientUnits="userSpaceOnUse">
      <stop stop-color="#3D3D3D"/>
      <stop offset="1" stop-color="#242424"/>
    </linearGradient>
    <linearGradient id="cash" x1="170" y1="122" x2="298" y2="244" gradientUnits="userSpaceOnUse">
      <stop stop-color="#FFFDF7"/>
      <stop offset="1" stop-color="#E9E3D6"/>
    </linearGradient>
    <filter id="depth" x="-20%" y="-20%" width="140%" height="140%">
      <feDropShadow dx="10" dy="14" stdDeviation="14" flood-color="#000000" flood-opacity=".46"/>
      <feDropShadow dx="-3" dy="-3" stdDeviation="6" flood-color="#FFFFFF" flood-opacity=".08"/>
    </filter>
  </defs>
  <rect width="512" height="512" rx="118" fill="url(#tile)"/>
  <g filter="url(#depth)">
    <rect x="156" y="128" width="86" height="132" rx="18" fill="url(#cash)" transform="rotate(9 156 128)"/>
    <rect x="202" y="114" width="86" height="146" rx="18" fill="url(#cash)" transform="rotate(3 202 114)"/>
    <rect x="248" y="130" width="86" height="130" rx="18" fill="url(#cash)" transform="rotate(-7 248 130)"/>
    <rect x="90" y="210" width="332" height="192" rx="52" fill="url(#wallet)" stroke="#5A5A5A" stroke-width="9"/>
    <path d="M90 276h250c39 0 70 31 70 70v6c0 28-23 50-50 50H90" fill="#343434" stroke="#646464" stroke-width="9"/>
    <path d="M187 338l51-47 31 28 62-65" fill="none" stroke="#4ED182" stroke-width="13" stroke-linecap="round" stroke-linejoin="round"/>
    <path d="M303 254h28v28" fill="none" stroke="#4ED182" stroke-width="13" stroke-linecap="round" stroke-linejoin="round"/>
    <circle cx="356" cy="346" r="12" fill="#4ED182"/>
  </g>
</svg>
